<svg id="Layer_1" data-name="Layer 1" xmlns="http://www.w3.org/2000/svg" viewBox="0 0 3082.9082 737.76563"><defs><style>.cls-1{fill:#5564f1;}</style></defs><path class="cls-1" d="M259.96826,139.39209H618.562L564.96826,278.50146H391.87451L366.10889,428.939H515.51514L492.84326,567.01709H343.437L293.98389,860.67334H139.42139Z" transform="translate(-139.42139 -131.15771)"/><path class="cls-1" d="M933.85986,139.39209h157.64063L765.90674,860.67334H610.313L746.32861,569.064H678.313l-34-429.67187H799.90674L812.26611,420.689Z" transform="translate(-139.42139 -131.15771)"/><path class="cls-1" d="M1383.62451,818.439q-60.28125,50.48438-163.32812,50.48438-178.26562,0-178.25-151.46875a294.65881,294.65881,0,0,1,4.125-50.5l88.60937-527.5625h156.625L1203.812,663.86084q-2.0625,16.5-2.0625,20.60937,0,42.25782,42.25,42.25,26.78907,0,41.73438-14.9375,14.92968-14.92968,20.09375-47.92187l87.57812-524.46875h155.59375l-88.60937,527.5625Q1443.89014,767.94677,1383.62451,818.439Z" transform="translate(-139.42139 -131.15771)"/><path class="cls-1" d="M1672.63818,687.564q0,43.28907,39.15625,43.28125,23.69532,0,38.64063-13.90625,14.92968-13.92187,18.03125-36.57812,2.0625-9.28125,2.0625-26.79688,0-30.89062-14.95313-54.09375-14.95312-23.17968-49.96875-51.01562l-47.39062-37.09375q-76.26562-58.71094-76.25-154.54688a291.7032,291.7032,0,0,1,3.07812-41.21875q14.4375-85.52343,76.76563-134.98437,62.34375-49.45312,149.9375-49.45313,84.46875,0,127.25,40.1875,42.75,40.17188,42.76562,105.09375a218.92413,218.92413,0,0,1-3.09375,36.0625l-6.1875,39.15625-155.59375,45.32813,13.40625-77.26563a115.89872,115.89872,0,0,0,1.01563-17.53125q0-45.32812-40.17188-45.32812-22.6875,0-38.14062,14.9375-15.46875,14.95313-19.5625,37.60937a167.88806,167.88806,0,0,0-2.0625,21.64063q0,25.78125,12.875,43.28125,12.86718,17.53125,51,51.51562l55.64062,50.48438q71.10938,61.82813,71.10938,152.5a247.50476,247.50476,0,0,1-4.125,46.375q-14.4375,87.58593-73.15625,140.65625-58.73437,53.0625-155.59375,53.0625-80.39062,0-123.65625-41.73438-43.2422-41.71875-43.26563-111.79687a257.26912,257.26912,0,0,1,3.09375-40.1875l6.17188-38.125,155.59375-50.5-13.39063,85.53125A96.48432,96.48432,0,0,0,1672.63818,687.564Z" transform="translate(-139.42139 -131.15771)"/><path class="cls-1" d="M2236.25244,139.39209,2115.70557,860.67334h-154.5625l120.54687-721.28125Z" transform="translate(-139.42139 -131.15771)"/><path class="cls-1" d="M2359.896,185.28271q62.85938-54.09375,161.78125-54.10937,86.53125,0,132.39062,41.21875,45.84375,41.22656,45.85938,116.4375a248.86,248.86,0,0,1-4.10938,46.375l-54.625,327.65625q-16.5,95.83593-79.85937,149.9375-63.375,54.09375-162.28125,54.09375-85.52345,0-131.375-41.21875-45.82032-41.20312-45.84375-115.40625a255.12109,255.12109,0,0,1,4.10937-47.40625l54.60938-327.65625Q2297.05225,239.39209,2359.896,185.28271ZM2379.47412,682.439q0,22.6875,11.32813,34.01563,11.34375,11.34375,30.92187,11.32812,24.72657,0,41.73438-15.96875,16.99218-15.96093,22.15625-48.95312l55.64062-333.84375q2.0625-12.35157,2.0625-15.45313,0-21.63281-11.85937-32.45312-11.85937-10.82812-32.45313-10.82813-23.71875,0-40.1875,14.95313-16.5,14.95313-21.64062,43.78125l-55.64063,333.84375Q2379.47412,677.29834,2379.47412,682.439Z" transform="translate(-139.42139 -131.15771)"/><path class="cls-1" d="M3079.11084,139.39209h143.21875L3101.78271,860.67334H2956.50146L2903.939,592.76709l-16.48437-97.89063-56.67188,365.79688H2685.50146l120.54688-721.28125h133.95312l53.59375,322.51562,15.45313,94.79688Z" transform="translate(-139.42139 -131.15771)"/></svg>