<svg id="Logo" xmlns="http://www.w3.org/2000/svg" xmlns:xlink="http://www.w3.org/1999/xlink" viewBox="0 0 695 254.4"><defs><style>.cls-1{fill:none;}.cls-2{fill:#1f1f1f;}.cls-3{clip-path:url(#clip-path);}.cls-4{fill:#4ec1ad;}.cls-5{fill:#c95378;}.cls-6{fill:#d27191;}.cls-7{fill:#ee9e49;}.cls-8{fill:#359d8b;}.cls-9{fill:#1e7767;}.cls-10{fill:#318aa9;}.cls-11{fill:#b63f62;}.cls-12{fill:#fdb768;}.cls-13{fill:#e0842e;}.cls-14{fill:#509db9;}.cls-15{fill:#72b1c5;}.cls-16{fill:#a32d4f;}</style><clipPath id="clip-path"><path class="cls-1" d="M99.35,76.4Zm10.18,2.86,8-5.83L100.41,76ZM104.65,125v25.23l15.16-8.69Zm15.48-53.54h0V63.78L103.48,73.86Zm0,11.77V73.43l-8.8,6.47Zm1.59,0,8.8-3.29-8.8-6.47ZM126,92.52l-5-6.79-5,6.79Zm-3.82-7.85,5.41,7.42,3.5-10.71Zm-.42-13.25,7.84,5.83L121.72,64.1Zm.21,71.67v27.25l15.27-18.45Zm7.95-52.91,12.19-12.82L133,80.75Zm-1.16,3.5,5.4,7.42L141,80.85Zm3.92-14.52,9-3.29L124.37,65.48Zm-12.41,63.93-15.16,8.8,15.16,18.45Zm0-26.61-15,6.78,15,16.33Zm-15.48,5.19L120,114.89l-14.84-5.73Zm32.34-12.51-15,5.73,15.38,6.78ZM108.68,80.64l-9-3.28,7,20.35Zm59.26,31.49-11.76-9.33.84,22ZM180.67,129,173,144.36,184,154.75Zm-24.39-1h0l.85,28,13.78-11.55Zm13.78-16.11,9.44,10.39-3.92-19.62Zm-1.59,2-11.13,12.83L171,142.14Zm11.67,11.45-10-11,2.44,27.25,7.63-15.48v-.53Zm-77.61-3L87.79,102.91h-.1l-.85,22.9Zm52.9,3.39-.84-23h-.11l-14.74,19.62Zm2-24,10.39,8.27L165.51,99.2Zm-42.94-7.32-5.41,7.53h20.78Zm7.42,45.06L137,123.26l-15.06-6.78Zm-14.1-38.49,5.3-7.42L110,83.93ZM137.62,125,122.46,141.5l15.16,8.69Zm31.81-15.06,5.19-8.69-7.52-2ZM117.37,94.11l15.06,7.42L127,94.11Zm21.74,26.61,12.72-16.86-13.15,4.67Zm-19.41-36-8.9-3.29,3.5,10.71ZM166.25,99h-.11l-.42.11ZM184.8,160.9l-8.37,18.45,11,.74ZM142.5,76.4Zm41.88,81.53-.11-.63h0L173,146.48,175.68,177Zm-13-11.87-14.21,12v.21h0l17.07,19.51Zm-15.8-18.66-16.33-3.5v24.7l16.33-21ZM76.23,99h0Zm81,61.82.84,24.8,15.8-5.83ZM123.1,190.69l12.08-.53.85-6Zm-.75-18.34L136.24,180l1-25.66Zm51.85,9-16,5.94v.11l14.74,3.18Zm-.74,9.33.21.11v-.11Zm2.44-9.75-1.28,9.22,13-8.16v-.32Zm-107.83.42,1.27,9.23L84,187.41v-.11Zm.43,9.44ZM106.13,184l.85,6.15,12.19.53Zm-39.76-3.07-11.87.74V182l13.15,8.16Zm36.69-57-16.33,3.5v.32l16.33,21ZM74.33,110l10.49-8.16L76.76,99.2Zm61.81,71.78-14.21-7.85v15.48l14.21-7.1Zm-64-69.87-5.51-9.33-4,19.93Zm-2.86,32.44L61.6,128.78l-3.39,26.08Zm2.86-30L62,125.49l-.11.11V126l7.74,15.59ZM85.88,128,71.36,144.47,85,155.92ZM71.25,142.14l13.68-15.38L73.69,113.93Zm14-17.39.84-22-11.87,9.33ZM67.65,101.1l5.09,8.8,2.43-10.7ZM105,154.22l1,25.77,13.89-7.64Zm15.26,19.72L106,181.79v.42l14.2,7.21Zm-17.07-53.22.43-12.09-13-4.77ZM69.24,146.48,57.89,157.4l-.1.32,8.8,19.3Zm-3.4,32.87-8.48-18.66-2.65,19.4ZM85,158.25V158l-14.1-12-2.86,31.7,17-19.4Zm-.1,2.65L68.39,179.77l15.69,5.83Z"/></clipPath></defs><path class="cls-2" d="M221.8,158.3a3.08,3.08,0,0,1-3.2-3.2V126.7a3.24,3.24,0,0,1,.9-2.4,3.17,3.17,0,0,1,2.3-.9,2.87,2.87,0,0,1,2.3.9,3.24,3.24,0,0,1,.9,2.4V155a3.17,3.17,0,0,1-.9,2.3A2.64,2.64,0,0,1,221.8,158.3Zm21.2,0a3.08,3.08,0,0,1-3.2-3.2V136.8c0-2.7-.7-4.7-2-6a6.86,6.86,0,0,0-5.1-1.9,7.47,7.47,0,0,0-5.5,2.3,8.42,8.42,0,0,0-2.2,5.9h-4a15.4,15.4,0,0,1,1.6-7.3,11.48,11.48,0,0,1,4.6-4.9,13.48,13.48,0,0,1,13.1-.2,10.35,10.35,0,0,1,4.3,4.7,17.28,17.28,0,0,1,1.6,7.5V155a3.17,3.17,0,0,1-.9,2.3A2.64,2.64,0,0,1,243,158.3Zm21.1,0a3.08,3.08,0,0,1-3.2-3.2V136.8c0-2.7-.7-4.7-2-6a6.86,6.86,0,0,0-5.1-1.9,7.1,7.1,0,0,0-5.4,2.3,8.35,8.35,0,0,0-2.1,5.9H241a14.37,14.37,0,0,1,1.8-7.3,11.82,11.82,0,0,1,5-4.9,14.63,14.63,0,0,1,7.3-1.8,12.42,12.42,0,0,1,6.4,1.6,10.35,10.35,0,0,1,4.3,4.7,17.28,17.28,0,0,1,1.6,7.5V155a3.17,3.17,0,0,1-.9,2.3A3,3,0,0,1,264.1,158.3Z"/><path class="cls-2" d="M294.4,158.5a19.52,19.52,0,0,1-9.4-2.3,16.16,16.16,0,0,1-6.4-6.3,18.47,18.47,0,0,1-2.3-9.2,18.16,18.16,0,0,1,2.2-9.2,16.77,16.77,0,0,1,6.1-6.3,17.34,17.34,0,0,1,8.9-2.3,15.61,15.61,0,0,1,8.5,2.2,13.9,13.9,0,0,1,5.4,6.1,20.81,20.81,0,0,1,1.9,8.9,2.79,2.79,0,0,1-.8,2,2.86,2.86,0,0,1-2.1.8H280.9v-5.1h25.4l-2.6,1.8a13.27,13.27,0,0,0-1.3-5.7,9.25,9.25,0,0,0-8.8-5.5,11.23,11.23,0,0,0-6.2,1.6,10.41,10.41,0,0,0-3.9,4.4,14.21,14.21,0,0,0-1.3,6.3,12.31,12.31,0,0,0,1.6,6.3,11.36,11.36,0,0,0,4.4,4.3,12.42,12.42,0,0,0,6.4,1.6,11.25,11.25,0,0,0,4-.7,12.58,12.58,0,0,0,3.3-1.7,3.14,3.14,0,0,1,2.1-.7,2.64,2.64,0,0,1,1.9.7,2.76,2.76,0,0,1,1.1,2.1,2.46,2.46,0,0,1-1,2,17.12,17.12,0,0,1-5.4,2.8A21.38,21.38,0,0,1,294.4,158.5Z"/><path class="cls-2" d="M330.1,158.5a23.91,23.91,0,0,1-8.2-1.4,15.92,15.92,0,0,1-5.9-3.5,3,3,0,0,1-.8-2.3,2.84,2.84,0,0,1,1.2-2.1,3.25,3.25,0,0,1,2.5-.9,3.6,3.6,0,0,1,2.1,1.1,10.07,10.07,0,0,0,3.5,2.3,12.87,12.87,0,0,0,5.3,1.1,10.59,10.59,0,0,0,5.6-1.2,3.69,3.69,0,0,0,2-3.1,4,4,0,0,0-1.8-3.3c-1.2-.9-3.5-1.7-6.8-2.3-4.3-.9-7.4-2.1-9.3-3.8a8.17,8.17,0,0,1-2.9-6.3,7.59,7.59,0,0,1,1.9-5.4,12,12,0,0,1,4.9-3.2,19.86,19.86,0,0,1,13.6.2,11.66,11.66,0,0,1,5.1,3.7,2.68,2.68,0,0,1,.8,2.1,2.4,2.4,0,0,1-1.1,1.9,2.86,2.86,0,0,1-2.4.4,5.48,5.48,0,0,1-2.3-1.1,9.54,9.54,0,0,0-3.4-2.1,13.3,13.3,0,0,0-4.2-.6,9.62,9.62,0,0,0-4.7,1,3,3,0,0,0-1.9,2.8,3.7,3.7,0,0,0,.6,2.1,5.28,5.28,0,0,0,2.4,1.7,24.82,24.82,0,0,0,5.2,1.4,25.41,25.41,0,0,1,7.5,2.4,10.58,10.58,0,0,1,4,3.4,8.41,8.41,0,0,1,1.2,4.5,9,9,0,0,1-1.6,5.3,11,11,0,0,1-4.6,3.8A18.25,18.25,0,0,1,330.1,158.5Z"/><path class="cls-2" d="M355.1,145.5a3.08,3.08,0,0,1-3.2-3.2V111.7a3.24,3.24,0,0,1,.9-2.4,3.17,3.17,0,0,1,2.3-.9,2.87,2.87,0,0,1,2.3.9,3.24,3.24,0,0,1,.9,2.4v30.6a3.17,3.17,0,0,1-.9,2.3A2.87,2.87,0,0,1,355.1,145.5Zm0,12.8a3.08,3.08,0,0,1-3.2-3.2V126.6a3.24,3.24,0,0,1,.9-2.4,3.17,3.17,0,0,1,2.3-.9,2.87,2.87,0,0,1,2.3.9,3.24,3.24,0,0,1,.9,2.4V155a3.17,3.17,0,0,1-.9,2.3A2.64,2.64,0,0,1,355.1,158.3Zm26.1,0a3.08,3.08,0,0,1-3.2-3.2V139.4a11.47,11.47,0,0,0-1.3-5.9,8.41,8.41,0,0,0-3.6-3.4,12.07,12.07,0,0,0-5.2-1.1,10.61,10.61,0,0,0-4.8,1.1,8.79,8.79,0,0,0-3.4,2.9,7.46,7.46,0,0,0-1.3,4.2h-4a13.36,13.36,0,0,1,1.9-7.2,14.15,14.15,0,0,1,5.3-5,15.75,15.75,0,0,1,7.5-1.9,15.54,15.54,0,0,1,7.8,1.9,14.52,14.52,0,0,1,5.5,5.5,18.58,18.58,0,0,1,2,8.9V155a3.17,3.17,0,0,1-.9,2.3A2.9,2.9,0,0,1,381.2,158.3Z"/><path class="cls-2" d="M410.9,158.5a16.89,16.89,0,0,1-15.2-8.6,18.25,18.25,0,0,1-2.3-9,18.68,18.68,0,0,1,2.2-9.2,16.08,16.08,0,0,1,6.1-6.3,17.34,17.34,0,0,1,8.9-2.3,16.52,16.52,0,0,1,6.8,1.4,17.52,17.52,0,0,1,5.6,4.3,2.2,2.2,0,0,1,.6,2.1,3.19,3.19,0,0,1-1.4,1.9,2.33,2.33,0,0,1-2,.4,3.65,3.65,0,0,1-2-1.1,10.29,10.29,0,0,0-7.7-3.3,10.53,10.53,0,0,0-5.7,1.5,11.31,11.31,0,0,0-3.9,4.2,13.92,13.92,0,0,0-1.4,6.3,13.37,13.37,0,0,0,1.4,6.1,10.13,10.13,0,0,0,4,4.2,11.56,11.56,0,0,0,5.9,1.6,14.79,14.79,0,0,0,3.9-.5,10.52,10.52,0,0,0,3.1-1.7,3.24,3.24,0,0,1,2.1-.9,2.21,2.21,0,0,1,1.9.6,3.29,3.29,0,0,1,1.2,2,2.37,2.37,0,0,1-.8,2A15.3,15.3,0,0,1,410.9,158.5Z"/><path class="cls-2" d="M447.7,158.5a15.44,15.44,0,0,1-8.3-2.3,16.72,16.72,0,0,1-5.8-6.3,19.26,19.26,0,0,1-2.1-9,18.63,18.63,0,0,1,2.3-9.1,16.83,16.83,0,0,1,6.3-6.4,16.65,16.65,0,0,1,8.9-2.3,17.6,17.6,0,0,1,8.9,2.3,17.31,17.31,0,0,1,6.2,6.4,18.36,18.36,0,0,1,2.3,9.1H464a18.69,18.69,0,0,1-2.1,9,15.64,15.64,0,0,1-14.2,8.6Zm1.3-5.8a10.33,10.33,0,0,0,5.8-1.6,11.07,11.07,0,0,0,4-4.3,12.26,12.26,0,0,0,1.5-6.1,12.64,12.64,0,0,0-1.5-6.2,11.81,11.81,0,0,0-4-4.3,11.2,11.2,0,0,0-5.8-1.6,10.23,10.23,0,0,0-5.7,1.6,11.31,11.31,0,0,0-4.1,4.3,12.64,12.64,0,0,0-1.5,6.2,12.26,12.26,0,0,0,1.5,6.1,11.28,11.28,0,0,0,4.1,4.3A10.23,10.23,0,0,0,449,152.7Zm14.2,5.6a3.08,3.08,0,0,1-3.2-3.2v-9.8l1.2-6.8,5.3,2.3V155a3.17,3.17,0,0,1-.9,2.3A3.25,3.25,0,0,1,463.2,158.3Z"/><path class="cls-2" d="M479.3,173.2a3.08,3.08,0,0,1-3.2-3.2V140.9a18.36,18.36,0,0,1,2.3-9.1,17.31,17.31,0,0,1,6.2-6.4,16.65,16.65,0,0,1,8.9-2.3,17.6,17.6,0,0,1,8.9,2.3,17.31,17.31,0,0,1,6.2,6.4,18.36,18.36,0,0,1,2.3,9.1,18.69,18.69,0,0,1-2.1,9,15.37,15.37,0,0,1-5.8,6.3,14.84,14.84,0,0,1-8.3,2.3,14.61,14.61,0,0,1-6.9-1.6,17.11,17.11,0,0,1-5.4-4.2v17.2a3.17,3.17,0,0,1-.9,2.3A2.46,2.46,0,0,1,479.3,173.2Zm14.2-20.5a10.33,10.33,0,0,0,5.8-1.6,11.07,11.07,0,0,0,4-4.3,12.26,12.26,0,0,0,1.5-6.1,12.64,12.64,0,0,0-1.5-6.2,11.81,11.81,0,0,0-4-4.3,11.2,11.2,0,0,0-5.8-1.6,10.23,10.23,0,0,0-5.7,1.6,10.38,10.38,0,0,0-4,4.3,12.64,12.64,0,0,0-1.5,6.2,12.26,12.26,0,0,0,1.5,6.1,11.81,11.81,0,0,0,4,4.3A10.23,10.23,0,0,0,493.5,152.7Z"/><path class="cls-2" d="M535.1,158.5a15.44,15.44,0,0,1-8.3-2.3,16.72,16.72,0,0,1-5.8-6.3,19.26,19.26,0,0,1-2.1-9,18.63,18.63,0,0,1,2.3-9.1,16.83,16.83,0,0,1,6.3-6.4,16.65,16.65,0,0,1,8.9-2.3,17.6,17.6,0,0,1,8.9,2.3,17.31,17.31,0,0,1,6.2,6.4,18.36,18.36,0,0,1,2.3,9.1h-2.5a18.69,18.69,0,0,1-2.1,9,16.07,16.07,0,0,1-5.8,6.3A15.7,15.7,0,0,1,535.1,158.5Zm1.3-5.8a10.33,10.33,0,0,0,5.8-1.6,11.07,11.07,0,0,0,4-4.3,12.26,12.26,0,0,0,1.5-6.1,12.64,12.64,0,0,0-1.5-6.2,11.81,11.81,0,0,0-4-4.3,11.2,11.2,0,0,0-5.8-1.6,10.23,10.23,0,0,0-5.7,1.6,11.31,11.31,0,0,0-4.1,4.3,12.64,12.64,0,0,0-1.5,6.2,12.26,12.26,0,0,0,1.5,6.1,11.28,11.28,0,0,0,4.1,4.3A9.78,9.78,0,0,0,536.4,152.7Zm14.2,5.6a3.08,3.08,0,0,1-3.2-3.2v-9.8l1.2-6.8,5.3,2.3V155a3.17,3.17,0,0,1-.9,2.3A3.25,3.25,0,0,1,550.6,158.3Z"/><path class="cls-2" d="M579.1,158.5a17.6,17.6,0,0,1-8.9-2.3,17.53,17.53,0,0,1-8.6-15.5,18.69,18.69,0,0,1,2.1-9,15.37,15.37,0,0,1,5.8-6.3,14.84,14.84,0,0,1,8.3-2.3,14.61,14.61,0,0,1,6.9,1.6,15.68,15.68,0,0,1,5.3,4.2V111.7a3.24,3.24,0,0,1,.9-2.4,3.17,3.17,0,0,1,2.3-.9,2.87,2.87,0,0,1,2.3.9,3.24,3.24,0,0,1,.9,2.4v29.1a18.36,18.36,0,0,1-2.3,9.1,17.31,17.31,0,0,1-6.2,6.4A17.94,17.94,0,0,1,579.1,158.5Zm0-5.8a10.33,10.33,0,0,0,5.8-1.6,11.07,11.07,0,0,0,4-4.3,12.53,12.53,0,0,0,1.5-6.1,12.26,12.26,0,0,0-1.5-6.1,10.79,10.79,0,0,0-4-4.2,11.2,11.2,0,0,0-5.8-1.6,10.23,10.23,0,0,0-5.7,1.6,11.79,11.79,0,0,0-4.1,4.2,13.15,13.15,0,0,0,0,12.2,10.62,10.62,0,0,0,4.1,4.3A10.23,10.23,0,0,0,579.1,152.7Z"/><path class="cls-2" d="M624.3,158.5a19.52,19.52,0,0,1-9.4-2.3,16.16,16.16,0,0,1-6.4-6.3,18.47,18.47,0,0,1-2.3-9.2,18.16,18.16,0,0,1,2.2-9.2,16.77,16.77,0,0,1,6.1-6.3,17.34,17.34,0,0,1,8.9-2.3,15.61,15.61,0,0,1,8.5,2.2,13.9,13.9,0,0,1,5.4,6.1,20.81,20.81,0,0,1,1.9,8.9,2.79,2.79,0,0,1-.8,2,2.86,2.86,0,0,1-2.1.8H610.8v-5.1H636l-2.6,1.8a13.27,13.27,0,0,0-1.3-5.7,9.25,9.25,0,0,0-8.8-5.5,11.23,11.23,0,0,0-6.2,1.6,10.41,10.41,0,0,0-3.9,4.4,14.21,14.21,0,0,0-1.3,6.3,12.31,12.31,0,0,0,1.6,6.3,11.36,11.36,0,0,0,4.4,4.3,12.42,12.42,0,0,0,6.4,1.6,11.25,11.25,0,0,0,4-.7,12.58,12.58,0,0,0,3.3-1.7,3.14,3.14,0,0,1,2.1-.7,2.64,2.64,0,0,1,1.9.7,2.76,2.76,0,0,1,1.1,2.1,2.46,2.46,0,0,1-1,2,17.12,17.12,0,0,1-5.4,2.8A18.61,18.61,0,0,1,624.3,158.5Z"/><g class="cls-3"><polygon points="120.98 71.61 120.98 84.12 132.32 79.98 120.98 71.61"/><polygon points="132.32 79.98 127.97 93.13 120.98 84.12 132.32 79.98"/><polygon points="133.81 101.82 127.97 93.13 142.5 76.16 133.81 101.82"/><polygon points="120.98 84.12 113.87 93.13 120.98 93.13 127.97 93.13 120.98 84.12"/><polygon points="120.98 71.61 120.98 84.12 109.53 79.98 120.98 71.61"/><polygon points="109.53 79.98 113.87 93.13 120.98 84.12 109.53 79.98"/><polygon points="120.98 63.12 99.35 76.16 109.53 79.98 120.98 63.12"/><polygon points="108.15 101.82 113.87 93.13 109.53 79.98 108.15 101.82"/><polygon points="127.97 93.13 132.32 79.98 142.5 76.16 127.97 93.13"/><polygon points="108.15 101.82 109.53 79.98 99.35 76.16 108.15 101.82"/><polygon points="120.98 63.12 109.53 79.98 120.98 71.61 120.98 63.12"/><polygon points="120.98 63.12 142.5 76.16 132.32 79.98 120.98 63.12"/><polygon points="120.98 63.12 132.32 79.98 120.98 71.61 120.98 63.12"/><polygon points="127.97 93.13 113.87 93.13 133.81 101.82 127.97 93.13"/><polygon points="113.87 93.13 108.15 101.82 133.81 101.82 113.87 93.13"/><polygon class="cls-4" points="175.37 101.19 166.14 98.75 169 111.79 175.37 101.19"/><polygon class="cls-5" points="180.24 125.36 169 111.79 175.37 101.19 180.24 125.36"/><polygon class="cls-6" points="171.97 144.23 181.3 125.36 169 111.79 171.97 144.23"/><polygon class="cls-7" points="184.27 157.06 171.97 144.23 181.3 126.42 184.27 157.06"/><polygon class="cls-8" points="155.22 102.35 169 111.79 166.14 98.75 155.22 102.35"/><polygon class="cls-9" points="156.18 126.63 155.22 102.35 169 111.79 156.18 126.63"/><polygon class="cls-5" points="171.97 144.23 156.18 126.63 169 111.79 171.97 144.23"/><polygon class="cls-4" points="155.22 101.29 138.26 122.71 156.18 126.63 155.22 101.29"/><polygon class="cls-10" points="137.83 108.71 138.26 122.71 154.16 102.35 137.83 108.71"/><polygon class="cls-8" points="137.3 150.8 156.18 126.63 138.26 122.71 137.3 150.8"/><polygon class="cls-11" points="156.07 158.12 156.18 126.63 171.97 144.23 156.07 158.12"/><polygon class="cls-7" points="175.15 179.85 171.97 144.23 156.07 158.12 175.15 179.85"/><polygon class="cls-12" points="185.33 157.06 175.15 179.85 171.97 144.23 185.33 157.06"/><polygon class="cls-7" points="173.67 190.56 158.19 187.17 175.15 179.85 173.67 190.56"/><polygon class="cls-13" points="156.7 158.84 158.19 187.17 175.15 179.85 156.7 158.84"/><polygon class="cls-14" points="175.15 179.85 188.72 181.87 185.33 159.18 175.15 179.85"/><polygon class="cls-10" points="190.3 181.36 173.67 190.56 175.15 179.85 190.3 181.36"/><polygon class="cls-14" points="121.08 115.07 138.26 122.71 137.83 108.71 121.08 115.07"/><polygon class="cls-10" points="121.08 141.47 138.26 122.71 121.08 115.07 121.08 141.47"/><polygon class="cls-9" points="138.36 150.8 121.08 141.47 138.26 122.71 138.36 150.8"/><polygon class="cls-8" points="121.08 172.33 137.3 150.8 121.08 141.47 121.08 172.33"/><polygon class="cls-11" points="136.03 181.87 121.08 172.33 138.03 152.26 136.03 181.87"/><polygon class="cls-5" points="121.08 190.03 138.03 182.22 121.08 172.33 121.08 190.03"/><polygon class="cls-13" points="135.18 190.03 121.08 190.03 136.89 183.15 135.18 190.03"/><polygon class="cls-6" points="66.8 101.19 76.02 98.75 73.16 111.79 66.8 101.19"/><polygon class="cls-5" points="61.92 125.36 73.16 111.79 66.8 101.19 61.92 125.36"/><polygon class="cls-12" points="70.19 144.23 61 125.81 73.16 111.79 70.19 144.23"/><polygon class="cls-7" points="57.89 157.06 70.19 144.23 61.51 126.84 57.89 157.06"/><polygon class="cls-5" points="86.73 101.9 72.95 111.34 75.81 98.3 86.73 101.9"/><polygon class="cls-13" points="85.99 126.63 86.94 102.35 73.16 111.79 85.99 126.63"/><polygon class="cls-7" points="70.19 144.23 85.99 126.63 73.16 111.79 70.19 144.23"/><polygon class="cls-7" points="87.4 101.53 103.91 122.71 85.99 126.63 87.4 101.53"/><polygon class="cls-13" points="104.33 108.71 103.91 122.71 89.03 102.59 104.33 108.71"/><polygon class="cls-14" points="103.8 150.8 85.99 126.63 103.91 122.71 103.8 150.8"/><polygon class="cls-10" points="85.03 158.12 85.99 126.63 70.19 144.23 85.03 158.12"/><polygon class="cls-14" points="67.01 179.85 70.19 144.23 86.09 158.12 67.01 179.85"/><polygon class="cls-15" points="57.34 157.63 67.01 179.85 70.19 144.23 57.34 157.63"/><polygon class="cls-9" points="68.75 191.26 85.03 187.42 67.54 179.88 68.75 191.26"/><polygon class="cls-8" points="85.32 158.3 84.26 187.35 67.3 180.04 85.32 158.3"/><polygon class="cls-14" points="67.01 179.85 54.5 180.55 57.21 158.56 67.01 179.85"/><polygon class="cls-10" points="52.5 181.78 67.88 191.33 66.39 180.62 52.5 181.78"/><polygon class="cls-7" points="121.08 115.07 103.91 122.71 104.33 108.71 121.08 115.07"/><polygon class="cls-14" points="121.08 141.47 103.91 122.71 121.08 115.07 121.08 141.47"/><polygon class="cls-10" points="103.8 150.8 121.08 141.47 103.91 122.71 103.8 150.8"/><polygon class="cls-4" points="121.08 172.33 103.8 151.86 121.08 141.47 121.08 172.33"/><polygon class="cls-8" points="106.13 181.87 121.08 172.33 103.8 151.86 106.13 181.87"/><polygon class="cls-11" points="121.08 190.03 104.65 181.87 121.08 172.33 121.08 190.03"/><polygon class="cls-16" points="106.98 190.03 121.08 190.03 105.07 183.02 106.98 190.03"/><polygon class="cls-15" points="120.98 71.61 120.98 84.12 132.32 79.98 120.98 71.61"/><polygon class="cls-8" points="132.32 79.98 127.97 93.13 120.98 84.12 132.32 79.98"/><polygon class="cls-11" points="133.81 101.82 127.97 93.13 142.5 76.16 133.81 101.82"/><polygon class="cls-9" points="120.98 84.12 113.87 93.13 120.98 93.13 127.97 93.13 120.98 84.12"/><polygon class="cls-12" points="120.98 71.61 120.98 84.12 109.53 79.98 120.98 71.61"/><polygon class="cls-8" points="109.53 79.98 113.87 93.13 120.98 84.12 109.53 79.98"/><polygon class="cls-7" points="107.62 101.9 113.5 93.69 109 80.06 107.62 101.9"/><polygon class="cls-4" points="128.72 93.67 132.96 80.75 143.24 76.7 128.72 93.67"/><polygon class="cls-12" points="106.55 101.11 109.53 79.98 99.35 76.16 106.55 101.11"/><polygon class="cls-14" points="120.98 63.12 142.5 76.16 132.32 79.98 120.98 63.12"/><polygon class="cls-10" points="120.98 63.12 132.32 79.98 120.98 71.61 120.98 63.12"/><polygon class="cls-5" points="127.97 93.13 113.87 93.13 133.49 102.41 127.97 93.13"/><polygon class="cls-11" points="113.87 93.13 108.15 101.82 131.42 102.32 113.87 93.13"/><polygon class="cls-14" points="99.35 76.16 120.98 71.61 120.98 63.12 99.35 76.16"/><polygon class="cls-7" points="99.35 76.16 109.53 79.98 120.98 71.61 99.35 76.16"/></g></svg>