<?xml version="1.0" encoding="UTF-8"?><svg id="Layer_1" xmlns="http://www.w3.org/2000/svg" viewBox="0 0 622.4 131.78"><defs><style>.cls-1{fill:#1d1d1b;}</style></defs><g><polygon class="cls-1" points="477.1 122.89 498.45 122.89 498.45 118.28 482.08 118.28 482.08 108.25 496.93 108.25 496.93 103.69 482.08 103.69 482.08 94.44 498.45 94.44 498.45 89.88 477.1 89.88 477.1 122.89"/><path class="cls-1" d="M519.2,114.89c-.82,2.38-2.96,3.97-5.36,3.97-3.82,0-4.63-2.74-4.63-5.04v-15.04h-4.87v15.67c0,5.59,3.2,8.92,8.55,8.92,2.74,0,4.92-1.23,6.3-2.63v2.16h4.87v-24.12h-4.87v16.12Z"/><path class="cls-1" d="M541.57,98.3c-2.07,0-4.02,.93-5.3,2.46v-1.99h-4.82v24.12h4.82v-15.97c.72-2.41,2.65-3.96,4.94-3.96,.96,0,1.85,.21,2.37,.55l.7,.46v-5.14l-.25-.12c-.52-.26-1.44-.41-2.45-.41Z"/><path class="cls-1" d="M558.31,98.3c-6.55,0-11.12,5.15-11.12,12.53s4.57,12.53,11.12,12.53,11.12-5.15,11.12-12.53-4.57-12.53-11.12-12.53Zm0,20.71c-3.79,0-6.25-3.21-6.25-8.18s2.45-8.18,6.25-8.18,6.25,3.21,6.25,8.18-2.45,8.18-6.25,8.18Z"/><path class="cls-1" d="M586.08,98.3c-2.65,0-4.78,1.18-6.09,2.44v-1.97h-4.82v33.01h4.82v-10.86c1.31,1.27,3.43,2.44,6.09,2.44,7.54,0,10.91-6.29,10.91-12.53s-3.37-12.53-10.91-12.53Zm6.04,12.53c0,4.91-2.6,8.08-6.61,8.08-2.3,0-4.4-1.33-5.51-3.48v-9.2c1.11-2.15,3.22-3.48,5.51-3.48,4.02,0,6.61,3.17,6.61,8.08Z"/><path class="cls-1" d="M622.4,110.15c0-7.31-3.92-11.85-10.23-11.85s-11.01,5.17-11.01,12.58,4.57,12.48,11.12,12.48c5.21,0,8.87-2.91,9.8-7.79l.1-.53h-4.61l-.08,.34c-.57,2.37-2.47,3.74-5.21,3.74-3.65,0-6.08-2.77-6.29-7.11h16.41v-1.86Zm-16.24-2.02c.67-3.51,2.9-5.59,6.06-5.59,3.65,0,5.11,2.81,5.29,5.59h-11.35Z"/></g><g><path class="cls-1" d="M96.29,0l-25.17,64.2h21.4l3.04-8.5h24.13l3.04,8.5h21.4L118.95,0h-22.66Zm4.15,40.28l7.18-20.05,7.18,20.05h-14.35Z"/><polygon class="cls-1" points="233.18 39.81 262.45 39.81 262.45 24.39 233.18 24.39 233.18 15.73 262.76 15.73 262.76 0 212.73 0 212.73 64.2 263.39 64.2 263.39 48.46 233.18 48.46 233.18 39.81"/><polygon class="cls-1" points="169.62 42.21 154.51 0 133.11 0 158.29 64.2 180.94 64.2 206.12 0 184.72 0 169.62 42.21"/><polygon class="cls-1" points="43.74 34.36 19.83 0 0 0 0 64.2 20.77 64.2 20.77 29.84 44.69 64.2 64.51 64.2 64.51 0 43.74 0 43.74 34.36"/><path class="cls-1" d="M318.28,42.17l1.95-.81c7.46-3.12,11.26-9.88,11.26-18.46,0-8.11-2.96-14.11-8.79-17.83-5.42-3.46-12.45-5.07-22.13-5.07h-27.1V64.2h20.14v-17.94h7.24l12.27,17.94h21.4l-16.23-22.02Zm-13.98-12.28h-11.01v-13.53h11.01c3.74,0,6.77,3.03,6.77,6.77s-3.03,6.77-6.77,6.77Z"/><path class="cls-1" d="M364.69,64.2h49.72l6.97-17.77h-35.77V0h-20.92V64.2Z"/><path class="cls-1" d="M448.74,0l-25.17,64.2h21.4l3.04-8.5h24.13l3.04,8.5h21.4L471.4,0h-22.66Zm4.15,40.28l7.18-20.05,7.18,20.05h-14.35Z"/><path class="cls-1" d="M549.45,31.34s.37-.12,1.18-.51c5.66-2.47,8.15-6.48,8.15-14.69,0-5.04-1.79-9.18-4.97-12C550.9,1.56,546.41,0,540.45,0h-37.9V64.2h40.19c5.59,0,10.19-1.19,12.85-3.85,2.93-2.93,4.86-6.97,4.86-13.3,0-10.67-4.99-12.67-9.06-14.79-1.31-.68-1.95-.91-1.95-.91Zm-27.17-16.26h11.42c1.76,0,2.87,.35,3.6,1.08,.89,.89,1.38,2.2,1.38,3.69,0,2.52-.9,4.51-2.73,5.1-.18,.06-.9,.17-1.13,.15h-12.55V15.08Zm16.49,32.74c-.89,.89-2.31,1.29-4.19,1.29h-12.31v-10.98h12.32c.1,0,.25,0,.35,0,.37,0,.62-.02,1.67,.06,2.55,.33,3.85,2.2,3.78,5.17,0,2.12-.65,3.48-1.63,4.46Z"/><path class="cls-1" d="M610.62,29.97c8.13,3.33,11.79,8.98,11.79,16.55v1.69c0,8.83-8.06,15.99-16.89,15.99h-37.52v-17.12h32.81c1.07,0,1.93-.87,1.93-1.94,0-.83-.29-1.39-1.26-1.81l-23.43-9.5c-6.66-2.71-11.08-8.9-11.08-16.3v-1.55C566.96,7.15,573.51,0,582.33,0h39.65l-6.71,17.13h-27.87c-.91,0-1.65,.74-1.65,1.65,0,.66,.38,1.25,1.08,1.54l23.79,9.65Z"/></g></svg>